<?xml version="1.0" encoding="utf-8"?>
<!-- Generator: Adobe Illustrator 16.0.3, SVG Export Plug-In . SVG Version: 6.00 Build 0)  -->
<!DOCTYPE svg PUBLIC "-//W3C//DTD SVG 1.1//EN" "http://www.w3.org/Graphics/SVG/1.1/DTD/svg11.dtd">
<svg version="1.1" id="Layer_1" xmlns="http://www.w3.org/2000/svg" xmlns:xlink="http://www.w3.org/1999/xlink" x="0px" y="0px"
	 width="64px" height="16px" viewBox="0 0 64 16" enable-background="new 0 0 64 16" xml:space="preserve">
<g>
	<polygon fill="#662D91" points="64,16 8,16 0,8 8,0 64,0 	"/>
	<g>
		<g>
			<path fill="#FFFFFF" d="M20.068,12.641h-2.085V8.177c0-0.551-0.092-0.965-0.277-1.241s-0.475-0.414-0.872-0.414
				c-0.533,0-0.92,0.196-1.162,0.588s-0.362,1.037-0.362,1.935v3.596h-2.085V4.998h1.593l0.28,0.978h0.116
				c0.205-0.351,0.501-0.625,0.889-0.824s0.832-0.297,1.333-0.297c1.144,0,1.918,0.374,2.324,1.121h0.185
				c0.205-0.355,0.507-0.631,0.906-0.827s0.849-0.294,1.35-0.294c0.866,0,1.521,0.222,1.965,0.667s0.667,1.156,0.667,2.136v4.983
				h-2.092V8.177c0-0.551-0.092-0.965-0.277-1.241s-0.475-0.414-0.872-0.414c-0.51,0-0.892,0.182-1.145,0.547
				s-0.379,0.943-0.379,1.736V12.641z"/>
			<path fill="#FFFFFF" d="M31.826,12.641l-0.403-1.039h-0.055c-0.351,0.441-0.712,0.748-1.083,0.92
				c-0.372,0.17-0.855,0.256-1.453,0.256c-0.734,0-1.312-0.209-1.733-0.629s-0.632-1.016-0.632-1.791
				c0-0.811,0.284-1.409,0.851-1.794s1.423-0.598,2.567-0.639l1.326-0.041V7.548c0-0.775-0.396-1.162-1.189-1.162
				c-0.611,0-1.329,0.185-2.153,0.554l-0.69-1.408c0.879-0.46,1.855-0.69,2.926-0.69c1.025,0,1.812,0.223,2.358,0.67
				s0.82,1.125,0.82,2.037v5.093H31.826z M31.211,9.1l-0.807,0.027c-0.606,0.018-1.057,0.127-1.354,0.328s-0.444,0.506-0.444,0.916
				c0,0.588,0.337,0.882,1.012,0.882c0.483,0,0.869-0.14,1.159-0.417s0.434-0.646,0.434-1.107V9.1z"/>
			<path fill="#FFFFFF" d="M40.761,10.371c0,0.783-0.272,1.381-0.817,1.791c-0.544,0.41-1.359,0.615-2.443,0.615
				c-0.557,0-1.029-0.037-1.422-0.113c-0.393-0.074-0.759-0.186-1.101-0.331V10.61c0.388,0.183,0.823,0.335,1.31,0.458
				c0.484,0.123,0.912,0.185,1.281,0.185c0.756,0,1.135-0.219,1.135-0.656c0-0.164-0.051-0.298-0.15-0.399
				c-0.1-0.104-0.273-0.219-0.52-0.35c-0.246-0.129-0.574-0.281-0.984-0.454c-0.588-0.246-1.02-0.474-1.295-0.684
				c-0.276-0.209-0.477-0.45-0.602-0.721c-0.126-0.271-0.188-0.605-0.188-1.001c0-0.679,0.263-1.204,0.79-1.576
				c0.525-0.372,1.271-0.557,2.238-0.557c0.92,0,1.816,0.201,2.687,0.602L40.05,6.96c-0.383-0.164-0.741-0.298-1.073-0.403
				s-0.672-0.157-1.019-0.157c-0.615,0-0.923,0.167-0.923,0.499c0,0.187,0.1,0.349,0.297,0.485c0.199,0.137,0.633,0.339,1.303,0.608
				c0.598,0.242,1.035,0.467,1.313,0.677s0.482,0.451,0.615,0.725S40.761,9.992,40.761,10.371z"/>
			<path fill="#FFFFFF" d="M45.607,11.116c0.365,0,0.803-0.079,1.313-0.239v1.552c-0.52,0.232-1.158,0.349-1.914,0.349
				c-0.834,0-1.441-0.211-1.822-0.633c-0.38-0.421-0.57-1.053-0.57-1.896V6.563h-0.998V5.682l1.148-0.697l0.602-1.613h1.333v1.627
				h2.14v1.565h-2.14v3.685c0,0.297,0.083,0.516,0.249,0.656C45.114,11.045,45.334,11.116,45.607,11.116z"/>
			<path fill="#FFFFFF" d="M51.924,12.777c-1.23,0-2.191-0.34-2.885-1.019S48,10.118,48,8.874c0-1.281,0.32-2.271,0.961-2.97
				c0.64-0.7,1.525-1.049,2.655-1.049c1.08,0,1.921,0.308,2.522,0.923s0.902,1.465,0.902,2.55v1.012h-4.929
				c0.022,0.593,0.198,1.056,0.526,1.388s0.789,0.499,1.381,0.499c0.461,0,0.896-0.048,1.306-0.144s0.839-0.248,1.285-0.458v1.613
				c-0.364,0.183-0.755,0.317-1.169,0.407C53.027,12.732,52.521,12.777,51.924,12.777z M51.63,6.338c-0.442,0-0.788,0.14-1.039,0.42
				s-0.394,0.678-0.431,1.193h2.926c-0.01-0.515-0.144-0.913-0.403-1.193S52.072,6.338,51.63,6.338z"/>
			<path fill="#FFFFFF" d="M61.002,4.854c0.283,0,0.518,0.021,0.704,0.062l-0.157,1.955c-0.168-0.045-0.373-0.068-0.615-0.068
				c-0.666,0-1.184,0.171-1.555,0.513c-0.372,0.342-0.558,0.82-0.558,1.436v3.89h-2.085V4.998h1.579l0.308,1.285h0.103
				c0.237-0.428,0.558-0.773,0.96-1.036C60.09,4.985,60.527,4.854,61.002,4.854z"/>
		</g>
	</g>
</g>
</svg>
