<?xml version="1.0" encoding="utf-8"?>
<!-- Generator: Adobe Illustrator 16.0.3, SVG Export Plug-In . SVG Version: 6.00 Build 0)  -->
<!DOCTYPE svg PUBLIC "-//W3C//DTD SVG 1.1//EN" "http://www.w3.org/Graphics/SVG/1.1/DTD/svg11.dtd">
<svg version="1.1" id="Layer_1" xmlns="http://www.w3.org/2000/svg" xmlns:xlink="http://www.w3.org/1999/xlink" x="0px" y="0px"
	 width="64px" height="16px" viewBox="0 0 64 16" enable-background="new 0 0 64 16" xml:space="preserve">
<g>
	<polygon fill="#BE1E2D" points="64,16 8,16 0,8 8,0 64,0 	"/>
	<g>
		<g>
			<path fill="#FFFFFF" d="M32.872,12.641H30.76V8.327h-3.958v4.313h-2.119V2.646h2.119v3.917h3.958V2.646h2.112V12.641z"/>
			<path fill="#FFFFFF" d="M41.15,12.641h-5.756V2.646h5.756v1.736h-3.637v2.194h3.384v1.736h-3.384v2.577h3.637V12.641z"/>
			<path fill="#FFFFFF" d="M49.354,12.641l-0.725-2.379h-3.644l-0.725,2.379h-2.283l3.527-10.035h2.591l3.541,10.035H49.354z
				 M48.123,8.484c-0.67-2.156-1.047-3.375-1.131-3.657c-0.085-0.283-0.145-0.506-0.182-0.67c-0.15,0.583-0.581,2.026-1.292,4.327
				H48.123z"/>
			<path fill="#FFFFFF" d="M61.187,7.548c0,1.646-0.468,2.905-1.405,3.78c-0.936,0.875-2.289,1.313-4.057,1.313h-2.83V2.646h3.138
				c1.632,0,2.898,0.431,3.801,1.292S61.187,6.003,61.187,7.548z M58.985,7.603c0-2.146-0.948-3.22-2.844-3.22h-1.128v6.508h0.909
				C57.965,10.891,58.985,9.795,58.985,7.603z"/>
		</g>
	</g>
</g>
</svg>
