<?xml version="1.0" encoding="utf-8"?>
<!-- Generator: Adobe Illustrator 16.0.3, SVG Export Plug-In . SVG Version: 6.00 Build 0)  -->
<!DOCTYPE svg PUBLIC "-//W3C//DTD SVG 1.1//EN" "http://www.w3.org/Graphics/SVG/1.1/DTD/svg11.dtd">
<svg version="1.1" id="Layer_1" xmlns="http://www.w3.org/2000/svg" xmlns:xlink="http://www.w3.org/1999/xlink" x="0px" y="0px"
	 width="64px" height="16px" viewBox="0 0 64 16" enable-background="new 0 0 64 16" xml:space="preserve">
<g>
	<polygon fill="#7292CB" points="64,16 8,16 0,8 8,0 64,0 	"/>
	<g>
		<g>
			<path fill="#FFFFFF" d="M36.974,12.641l-2.912-7.643h2.181l1.477,4.354c0.164,0.552,0.267,1.073,0.308,1.565h0.041
				c0.022-0.438,0.126-0.959,0.308-1.565l1.47-4.354h2.181l-2.912,7.643H36.974z"/>
			<path fill="#FFFFFF" d="M49.518,7.644c0,1.745-0.286,3.038-0.857,3.876c-0.572,0.838-1.453,1.258-2.643,1.258
				c-1.152,0-2.022-0.434-2.607-1.299c-0.586-0.865-0.879-2.145-0.879-3.835c0-1.764,0.285-3.063,0.854-3.9s1.446-1.254,2.632-1.254
				c1.152,0,2.024,0.438,2.615,1.313C49.223,4.677,49.518,5.958,49.518,7.644z M44.63,7.644c0,1.226,0.106,2.104,0.317,2.636
				c0.213,0.53,0.568,0.796,1.07,0.796c0.492,0,0.848-0.269,1.066-0.807s0.328-1.413,0.328-2.625c0-1.226-0.11-2.106-0.332-2.642
				c-0.221-0.536-0.574-0.803-1.063-0.803c-0.496,0-0.852,0.268-1.066,0.803S44.63,6.417,44.63,7.644z"/>
			<path fill="#FFFFFF" d="M50.816,11.663c0-0.383,0.103-0.673,0.308-0.868s0.503-0.294,0.896-0.294
				c0.379,0,0.671,0.101,0.879,0.301c0.207,0.2,0.311,0.487,0.311,0.861c0,0.36-0.105,0.644-0.314,0.851
				c-0.209,0.208-0.502,0.312-0.875,0.312c-0.383,0-0.68-0.102-0.889-0.304C50.922,12.318,50.816,12.032,50.816,11.663z"/>
			<path fill="#FFFFFF" d="M59.792,12.641H57.68V6.857l0.021-0.95l0.034-1.039c-0.352,0.351-0.595,0.581-0.731,0.69l-1.148,0.923
				L54.836,5.21l3.22-2.563h1.736V12.641z"/>
		</g>
	</g>
</g>
</svg>
