<?xml version="1.0" encoding="utf-8"?>
<!-- Generator: Adobe Illustrator 16.0.3, SVG Export Plug-In . SVG Version: 6.00 Build 0)  -->
<!DOCTYPE svg PUBLIC "-//W3C//DTD SVG 1.1//EN" "http://www.w3.org/Graphics/SVG/1.1/DTD/svg11.dtd">
<svg version="1.1" id="Layer_1" xmlns="http://www.w3.org/2000/svg" xmlns:xlink="http://www.w3.org/1999/xlink" x="0px" y="0px"
	 width="64px" height="16px" viewBox="0 0 64 16" enable-background="new 0 0 64 16" xml:space="preserve">
<g>
	<polygon fill="#7292CB" points="64,16 8,16 0,8 8,0 64,0 	"/>
	<g>
		<g>
			<path fill="#FFFFFF" d="M36.974,12.641l-2.912-7.643h2.181l1.477,4.354c0.164,0.552,0.267,1.073,0.308,1.565h0.041
				c0.022-0.438,0.126-0.959,0.308-1.565l1.47-4.354h2.181l-2.912,7.643H36.974z"/>
			<path fill="#FFFFFF" d="M47.809,12.641h-2.112V6.857l0.021-0.95l0.034-1.039c-0.351,0.351-0.595,0.581-0.731,0.69l-1.148,0.923
				L42.853,5.21l3.22-2.563h1.736V12.641z"/>
			<path fill="#FFFFFF" d="M50.816,11.663c0-0.383,0.103-0.673,0.308-0.868s0.503-0.294,0.896-0.294
				c0.379,0,0.671,0.101,0.879,0.301c0.207,0.2,0.311,0.487,0.311,0.861c0,0.36-0.105,0.644-0.314,0.851
				c-0.209,0.208-0.502,0.312-0.875,0.312c-0.383,0-0.68-0.102-0.889-0.304C50.922,12.318,50.816,12.032,50.816,11.663z"/>
			<path fill="#FFFFFF" d="M61.556,12.641h-6.986v-1.47l2.509-2.536c0.742-0.761,1.229-1.289,1.456-1.583s0.392-0.566,0.492-0.817
				s0.15-0.51,0.15-0.779c0-0.401-0.11-0.7-0.331-0.896c-0.222-0.196-0.517-0.294-0.886-0.294c-0.388,0-0.763,0.089-1.128,0.267
				s-0.745,0.431-1.142,0.759l-1.148-1.36c0.492-0.419,0.899-0.715,1.224-0.889s0.677-0.307,1.06-0.4s0.812-0.14,1.285-0.14
				c0.624,0,1.176,0.114,1.654,0.342s0.851,0.547,1.114,0.957s0.396,0.879,0.396,1.408c0,0.46-0.081,0.892-0.242,1.295
				c-0.162,0.403-0.413,0.817-0.752,1.241c-0.34,0.424-0.938,1.028-1.795,1.812l-1.285,1.21v0.096h4.354V12.641z"/>
		</g>
	</g>
</g>
</svg>
